<svg width="234" height="206" viewBox="0 0 234 206" fill="none" xmlns="http://www.w3.org/2000/svg">
<path fill-rule="evenodd" clip-rule="evenodd" d="M125.725 9.46515C106.648 9.29296 88.5424 12.9796 77.8284 16.3921L77.784 16.4062L77.7394 16.4195C54.7704 23.2477 9.54598 50.4176 9.54598 104.118C9.54598 158.354 49.1058 188.513 68.6816 196.72L64.9621 205.432C43.172 196.297 0 163.395 0 104.118C0 44.3423 50.1746 14.7558 74.9514 7.37248C86.5159 3.69466 105.616 -0.176099 125.812 0.00619867C145.96 0.188065 167.909 4.41401 184.383 17.6779C203.888 33.3813 216.353 48.7055 223.891 64.8897C231.431 81.078 233.877 97.7755 233.877 115.942C233.877 131.754 224.283 149.176 213.255 163.979C202.071 178.991 188.689 192.25 179.72 199.926L173.481 192.767C182.013 185.465 194.883 172.712 205.575 158.36C216.423 143.799 224.331 128.508 224.331 115.942C224.331 98.6361 222.003 83.4084 215.224 68.8538C208.443 54.2951 197.043 40.0589 178.364 25.0194C164.291 13.689 144.875 9.63801 125.725 9.46515Z" fill="black"/>
<path fill-rule="evenodd" clip-rule="evenodd" d="M50.259 121.819C46.1878 105.682 48.5654 85.3214 50.2092 77.1771L59.5698 79.0323C58.0315 86.6536 55.9543 105.392 59.5199 119.525L50.259 121.819ZM93.0733 120.672V78.1047H102.619V120.672H93.0733Z" fill="black"/>
</svg>
