<svg width="600" height="500" viewBox="0 0 600 500" fill="none" xmlns="http://www.w3.org/2000/svg">
<path d="M100 300H200V400H100V300Z" fill="#D51C5B"/>
<path d="M100 200H200V300H100V200Z" fill="#D51C5B"/>
<path d="M200 160H300V235H200V160Z" fill="#A62865"/>
<path d="M300 160H400V235H300V160Z" fill="#A62865"/>
<path d="M200 295H300V370H200V295Z" fill="#A62865"/>
<path d="M300 295H400V370H300V295Z" fill="#D51C5B"/>
<path d="M300 295H400V370H300V295Z" fill="#A62865"/>
<path d="M0 445C0 420.147 20.1472 400 45 400H100V500H45C20.1472 500 0 479.853 0 455V445Z" fill="#8A0431"/>
<path d="M500 400H555C579.853 400 600 420.147 600 445V455C600 479.853 579.853 500 555 500H500V400Z" fill="#FCBE4F"/>
<path d="M100 400H200V455C200 479.853 179.853 500 155 500H100V400Z" fill="#D51C5B"/>
<path d="M400 400H500V500H445C420.147 500 400 479.853 400 455V400Z" fill="#D51C5B"/>
<path d="M100 100H200V200H100V100Z" fill="#D51C5B"/>
<path d="M100 45C100 20.1472 120.147 0 145 0H200V100H100V45Z" fill="#2A8380"/>
<path d="M200 0H300V100H200V0Z" fill="#D51C5B"/>
<path d="M300 0H355C379.853 0 400 20.1472 400 45V100H300V0Z" fill="#D51C5B"/>
<path d="M400 300H500V400H400V300Z" fill="#D51C5B"/>
<path d="M400 200H500V300H400V200Z" fill="#D51C5B"/>
<path d="M400 100H455C479.853 100 500 120.147 500 145V200H400V100Z" fill="#D51C5B"/>
</svg>